<?xml version="1.0" encoding="utf-8"?>
<!-- Generator: Adobe Illustrator 19.0.0, SVG Export Plug-In . SVG Version: 6.00 Build 0)  -->
<svg version="1.1" id="Слой_1" xmlns="http://www.w3.org/2000/svg" xmlns:xlink="http://www.w3.org/1999/xlink" x="0px" y="0px"
	 viewBox="0 0 350.3 110.3" style="enable-background:new 0 0 350.3 110.3;" xml:space="preserve">
<style type="text/css">
	.st0{fill-rule:evenodd;clip-rule:evenodd;fill:#005B94;}
	.st1{fill-rule:evenodd;clip-rule:evenodd;fill:#009FE3;}
	.st2{fill:#009FE3;}
	.st3{fill:#005B94;}
</style>
<path class="st0" d="M98.2,45.9v23.4c0,15.1-12.3,27.5-27.5,27.5H38.5c-15.1,0-27.5-12.3-27.5-27.5V45.9h19.2v23.4
	c0,7.1,5.8,12.9,12.9,12.9h22.9c7.1,0,12.9-5.8,12.9-12.9V45.9H98.2L98.2,45.9z M48.3,38.6h12.6c2,0,3.7,1.6,3.7,3.7V64
	c0,2-1.6,3.7-3.7,3.7c-4.2,0-8.4,0-12.6,0c-2,0-3.7-1.6-3.7-3.7c0-7.2,0-14.5,0-21.7C44.7,40.2,46.3,38.6,48.3,38.6L48.3,38.6z"/>
<path class="st1" d="M79,10.8c9.3,3,16.5,10.8,18.6,20.5H79L79,10.8L79,10.8z M38.5,9.6h26.1v14.5H43.2c-5.1,0-9.5,3-11.6,7.3H11.7
	C14.3,18.9,25.3,9.6,38.5,9.6L38.5,9.6z"/>
<path class="st2" d="M287.1,52.9V38.6h8.5V53c0,6.8,1.1,7.5,6.4,7.5h5.4v7H301C291.7,67.6,287.1,64.2,287.1,52.9L287.1,52.9z
	 M267.3,56.1c0.4,4,1.9,4.4,6.3,4.4h8.6v7h-9.6c-9.3,0-13.9-3.4-13.9-14.7c0-11.3,4.5-14.3,13.9-14.3h9.6v7h-8.6
	c-4.1,0-5.7,0.3-6.2,3.7h11.8v6.8H267.3L267.3,56.1z M227.1,38.6v28.9h13.1c9.3,0,13.9-3.4,13.9-14.7c0-11.3-4.5-14.3-13.9-14.3
	H227.1L227.1,38.6z M245.6,53c0,6.8-1.1,7.5-6.4,7.5H235V45.6h4.1C244.5,45.6,245.6,46.1,245.6,53L245.6,53z M325.3,37.9
	c9.3,0,14.4,3.1,14.4,14.8c0,11.9-5,15.4-14.4,15.4c-9.4,0-14.4-3.5-14.4-15.4C310.9,41,315.9,37.9,325.3,37.9L325.3,37.9z
	 M325.3,60.9c5.3,0,5.9-0.7,5.9-8.1c0-6.9-0.6-7.5-5.9-7.5c-5.4,0-5.9,0.6-5.9,7.5C319.4,60.1,320,60.9,325.3,60.9L325.3,60.9z"/>
<path class="st3" d="M177.2,56.1c0.4,4,1.9,4.4,6.3,4.4h8.6v7h-9.6c-9.3,0-13.9-3.4-13.9-14.7c0-11.3,4.5-14.3,13.9-14.3h9.6v7h-8.6
	c-4.1,0-5.7,0.3-6.2,3.7h11.8v6.8H177.2L177.2,56.1z M140.8,67.6c-9.3,0-13.9-3.4-13.9-14.7V38.6h8.5l0,14.4c0,6.7,1.1,7.5,6.2,7.5
	V38.6h7.9v21.9c5.2,0,6.3-0.8,6.3-7.5l0-14.4h8.5v14.3c0,11.3-4.5,14.7-13.9,14.7C147.3,67.6,144,67.6,140.8,67.6L140.8,67.6z
	 M205,45.4h6.8c0.7,0,1.2,0.4,1.2,2.1c0,1.8-0.5,2-1.2,2H205V45.4L205,45.4z M205,60.8v-4.9h6.8c1,0,1.7,0.5,1.7,2.5
	c0,1.9-0.6,2.4-1.5,2.4H205L205,60.8z M215.3,52.5c5.2-0.4,6.3-2.7,6.3-6.8c0-4.9-1.5-7-7.3-7h-17.2v28.9h17.2
	c4.7,0,7.8-1.8,7.8-7.7C222.1,55.2,220.9,52.7,215.3,52.5L215.3,52.5z"/>
<path class="st3" d="M235.5,78.4c-0.8-0.3-2.2-0.5-3.6-0.5c-3.4,0-4.8,1.1-4.8,3.8c0,2,1,2.7,3.2,3c2,0.2,2.2,0.4,2.2,0.9
	c0,0.5-0.2,0.7-1.7,0.7c-1.2,0-2.3-0.2-3-0.3l-0.6,2.5c0.9,0.3,2.2,0.5,3.6,0.5c3.5,0,4.8-0.8,4.8-3.6c0-2-1.1-3-3.5-3.3
	c-1.8-0.2-2-0.3-2-0.9c0-0.4,0.2-0.7,1.7-0.7c1.3,0,2.3,0.2,3,0.3L235.5,78.4L235.5,78.4z M247,88.7v-8.1h3.5v-2.6h-9.9v2.6h3.5v8.1
	H247L247,88.7z M262.5,78.1h2.9V86c0,2.3-1.9,3-4.6,3c-2.8,0-4.6-0.6-4.6-3v-7.9h2.9v7.2c0,0.6,0.4,0.9,1.7,0.9s1.7-0.3,1.7-0.9
	V78.1L262.5,78.1z M271.6,78.1v10.6h4.8c3.4,0,5.1-1.2,5.1-5.4c0-4.1-1.7-5.2-5.1-5.2H271.6L271.6,78.1z M278.4,83.4
	c0,2.5-0.4,2.8-2.4,2.8h-1.5v-5.5h1.5C278,80.7,278.4,80.9,278.4,83.4L278.4,83.4z M290.2,78.1v10.6h-2.9V78.1H290.2L290.2,78.1z
	 M302.1,77.9c3.4,0,5.3,1.1,5.3,5.4c0,4.4-1.8,5.7-5.3,5.7c-3.4,0-5.3-1.3-5.3-5.7C296.9,79,298.7,77.9,302.1,77.9L302.1,77.9z
	 M302.1,86.3c2,0,2.2-0.3,2.2-3c0-2.5-0.2-2.8-2.2-2.8c-2,0-2.2,0.2-2.2,2.8C300,86,300.2,86.3,302.1,86.3L302.1,86.3z"/>
</svg>
