<?xml version="1.0" encoding="utf-8"?>
<!-- Generator: Adobe Illustrator 21.0.2, SVG Export Plug-In . SVG Version: 6.00 Build 0)  -->
<svg version="1.1" id="Слой_1" xmlns="http://www.w3.org/2000/svg" xmlns:xlink="http://www.w3.org/1999/xlink" x="0px" y="0px"
	 viewBox="0 0 350.3 110.3" style="enable-background:new 0 0 350.3 110.3;" xml:space="preserve">
<style type="text/css">
	.st0{fill:#005B94;}
	.st1{fill:#009FE3;}
</style>
<path class="st0" d="M98.2,45.9v23.4c0,15.1-12.3,27.5-27.5,27.5H38.5C23.4,96.8,11,84.5,11,69.3V45.9h19.2v23.4
	c0,7.1,5.8,12.9,12.9,12.9H66c7.1,0,12.9-5.8,12.9-12.9V45.9H98.2L98.2,45.9z M48.3,38.6h12.6c2,0,3.7,1.6,3.7,3.7V64
	c0,2-1.6,3.7-3.7,3.7c-4.2,0-8.4,0-12.6,0c-2,0-3.7-1.6-3.7-3.7c0-7.2,0-14.5,0-21.7C44.7,40.2,46.3,38.6,48.3,38.6L48.3,38.6z"/>
<path class="st1" d="M79,10.8c9.3,3,16.5,10.8,18.6,20.5H79V10.8L79,10.8z M38.5,9.6h26.1v14.5H43.2c-5.1,0-9.5,3-11.6,7.3H11.7
	C14.3,18.9,25.3,9.6,38.5,9.6L38.5,9.6z"/>
<path class="st1" d="M287.1,59.9V45.6h8.5V60c0,6.8,1.1,7.5,6.4,7.5h5.4v7H301C291.7,74.6,287.1,71.2,287.1,59.9L287.1,59.9z
	 M267.3,63.1c0.4,4,1.9,4.4,6.3,4.4h8.6v7h-9.6c-9.3,0-13.9-3.4-13.9-14.7s4.5-14.3,13.9-14.3h9.6v7h-8.6c-4.1,0-5.7,0.3-6.2,3.7
	h11.8V63L267.3,63.1L267.3,63.1z M227.1,45.6v28.9h13.1c9.3,0,13.9-3.4,13.9-14.7s-4.5-14.3-13.9-14.3L227.1,45.6L227.1,45.6z
	 M245.6,60c0,6.8-1.1,7.5-6.4,7.5H235V52.6h4.1C244.5,52.6,245.6,53.1,245.6,60L245.6,60z M325.3,44.9c9.3,0,14.4,3.1,14.4,14.8
	c0,11.9-5,15.4-14.4,15.4s-14.4-3.5-14.4-15.4C310.9,48,315.9,44.9,325.3,44.9L325.3,44.9z M325.3,67.9c5.3,0,5.9-0.7,5.9-8.1
	c0-6.9-0.6-7.5-5.9-7.5c-5.4,0-5.9,0.6-5.9,7.5C319.4,67.1,320,67.9,325.3,67.9L325.3,67.9z"/>
<path class="st0" d="M177.2,63.1c0.4,4,1.9,4.4,6.3,4.4h8.6v7h-9.6c-9.3,0-13.9-3.4-13.9-14.7s4.5-14.3,13.9-14.3h9.6v7h-8.6
	c-4.1,0-5.7,0.3-6.2,3.7h11.8V63L177.2,63.1L177.2,63.1z M140.8,74.6c-9.3,0-13.9-3.4-13.9-14.7V45.6h8.5V60c0,6.7,1.1,7.5,6.2,7.5
	V45.6h7.9v21.9c5.2,0,6.3-0.8,6.3-7.5V45.6h8.5v14.3c0,11.3-4.5,14.7-13.9,14.7C147.3,74.6,144,74.6,140.8,74.6L140.8,74.6z
	 M205,52.4h6.8c0.7,0,1.2,0.4,1.2,2.1c0,1.8-0.5,2-1.2,2H205V52.4L205,52.4z M205,67.8v-4.9h6.8c1,0,1.7,0.5,1.7,2.5
	c0,1.9-0.6,2.4-1.5,2.4H205L205,67.8z M215.3,59.5c5.2-0.4,6.3-2.7,6.3-6.8c0-4.9-1.5-7-7.3-7h-17.2v28.9h17.2
	c4.7,0,7.8-1.8,7.8-7.7C222.1,62.2,220.9,59.7,215.3,59.5L215.3,59.5z"/>
</svg>
