<?xml version="1.0" encoding="utf-8"?>
<!-- Generator: Adobe Illustrator 21.0.2, SVG Export Plug-In . SVG Version: 6.00 Build 0)  -->
<svg version="1.1" id="Слой_1" xmlns="http://www.w3.org/2000/svg" xmlns:xlink="http://www.w3.org/1999/xlink" x="0px" y="0px"
	 viewBox="0 0 109 110.3" style="enable-background:new 0 0 109 110.3;" xml:space="preserve">
<style type="text/css">
	.st0{fill:#005B94;}
	.st1{fill:#009FE3;}
</style>
<path class="st0" d="M98.2,45.9v23.4c0,15.1-12.3,27.5-27.5,27.5H38.5C23.4,96.8,11,84.5,11,69.3V45.9h19.2v23.4
	c0,7.1,5.8,12.9,12.9,12.9H66c7.1,0,12.9-5.8,12.9-12.9V45.9H98.2L98.2,45.9z M48.3,38.6h12.6c2,0,3.7,1.6,3.7,3.7V64
	c0,2-1.6,3.7-3.7,3.7c-4.2,0-8.4,0-12.6,0c-2,0-3.7-1.6-3.7-3.7c0-7.2,0-14.5,0-21.7C44.7,40.2,46.3,38.6,48.3,38.6L48.3,38.6z"/>
<path class="st1" d="M79,10.8c9.3,3,16.5,10.8,18.6,20.5H79V10.8L79,10.8z M38.5,9.6h26.1v14.5H43.2c-5.1,0-9.5,3-11.6,7.3H11.7
	C14.3,18.9,25.3,9.6,38.5,9.6L38.5,9.6z"/>
</svg>
