<?xml version="1.0" encoding="utf-8"?>
<!-- Generator: Adobe Illustrator 21.0.2, SVG Export Plug-In . SVG Version: 6.00 Build 0)  -->
<svg version="1.1" xmlns="http://www.w3.org/2000/svg" xmlns:xlink="http://www.w3.org/1999/xlink" x="0px" y="0px"
	 viewBox="0 0 89 32.5" style="enable-background:new 0 0 89 32.5;" xml:space="preserve">
<style type="text/css">
	.st0{enable-background:new    ;}
	.st1{fill-rule:evenodd;clip-rule:evenodd;fill:#75B8E2;}
	.st2{fill-rule:evenodd;clip-rule:evenodd;fill:#F2D117;}
	.st3{fill-rule:evenodd;clip-rule:evenodd;fill:#CA5D30;}
	.st4{fill-rule:evenodd;clip-rule:evenodd;fill:#A0CE63;}
</style>
<g id="v.p.u.t._copy_5_1_" class="st0">
	<g id="v.p.u.t._copy_5">
		<g>
			<path class="st1" d="M9.8,21.9c-0.1,0.4-0.3,0.6-0.6,0.6c-0.2,0-0.4-0.2-0.6-0.6L3.6,9H2.1l5.5,13.6c0.1,0.4,0.3,0.7,0.6,0.8
				c0.3,0.2,0.6,0.3,1,0.3c0.4,0,0.7-0.1,1-0.3c0.3-0.2,0.5-0.5,0.6-0.8L16,9h-1.5L9.8,21.9z M21.2,21.5c-0.2-0.2-0.5-0.3-0.8-0.3
				c-0.3,0-0.6,0.1-0.8,0.3c-0.2,0.2-0.3,0.5-0.3,0.8c0,0.3,0.1,0.6,0.3,0.8c0.2,0.2,0.5,0.3,0.8,0.3c0.4,0,0.6-0.1,0.8-0.3
				c0.2-0.2,0.3-0.5,0.3-0.8C21.5,22,21.4,21.7,21.2,21.5z"/>
		</g>
	</g>
</g>
<g id="v.p.u.t._copy_4_1_" class="st0">
	<g id="v.p.u.t._copy_4">
		<g>
			<path class="st2" d="M77.7,22c-0.6,0.3-1.2,0.4-1.8,0.4c-1,0-1.8-0.3-2.6-0.9c-0.8-0.6-1.1-1.4-1.1-2.3v-9.1h5.5V9h-5.5V2.5H71
				v16.8c0,1.3,0.5,2.4,1.4,3.2c1,0.8,2.1,1.2,3.5,1.2c0.7,0,1.5-0.2,2.2-0.5c0.7-0.3,1.4-0.7,2.1-1.2l-0.9-1.1
				C78.9,21.4,78.3,21.8,77.7,22z M85.8,21.5c-0.2-0.2-0.5-0.3-0.8-0.3c-0.3,0-0.6,0.1-0.8,0.3c-0.2,0.2-0.3,0.5-0.3,0.8
				c0,0.3,0.1,0.6,0.3,0.8c0.2,0.2,0.5,0.3,0.8,0.3c0.4,0,0.6-0.1,0.8-0.3c0.2-0.2,0.3-0.5,0.3-0.8C86.1,22,86,21.7,85.8,21.5z"/>
		</g>
	</g>
</g>
<g id="v.p.u.t._copy_3_1_" class="st0">
	<g id="v.p.u.t._copy_3">
		<g>
			<path class="st3" d="M59.7,18.2c0,1.3-0.5,2.3-1.4,3.1c-0.9,0.8-2,1.2-3.3,1.2c-1.2,0-2.3-0.3-3.1-1c-1-0.8-1.4-1.9-1.4-3.2V8.8
				h-1.2v9.9c0,1.5,0.6,2.7,1.8,3.7c1.1,0.9,2.4,1.3,4,1.3c1.6,0,2.9-0.5,4-1.4c1.2-1,1.8-2.3,1.8-3.8V8.8h-1.2V18.2z M66.6,21.5
				c-0.2-0.2-0.5-0.3-0.8-0.3c-0.3,0-0.6,0.1-0.8,0.3c-0.2,0.2-0.3,0.5-0.3,0.8c0,0.3,0.1,0.6,0.3,0.8c0.2,0.2,0.5,0.3,0.8,0.3
				c0.4,0,0.6-0.1,0.8-0.3c0.2-0.2,0.3-0.5,0.3-0.8C67,22,66.9,21.7,66.6,21.5z"/>
		</g>
	</g>
</g>
<g id="v.p.u.t._copy_2_1_" class="st0">
	<g id="v.p.u.t._copy_2">
		<g>
			<path class="st4" d="M32.2,8.5c-2.2,0-4,0.8-5.3,2.5c-1.1,1.4-1.7,3-1.7,4.8v14.5h1.2V16.1c0-1.8,0.5-3.3,1.6-4.5
				c1.1-1.2,2.4-1.8,4.2-1.8c1.7,0,3.1,0.6,4.1,1.8c1.1,1.2,1.6,2.7,1.6,4.5c0,1.8-0.6,3.3-1.7,4.6c-1.1,1.2-2.5,1.8-4.1,1.8
				c-1.3,0-2.4-0.4-3.4-1.1c-0.9-0.7-1.6-1.7-2-2.8L27,21c0.5,0.9,1.3,1.6,2.2,2.1c0.8,0.4,1.8,0.6,2.9,0.6c2.2,0,4-0.8,5.3-2.4
				c1.1-1.4,1.7-3.3,1.7-5.4c0-2.3-0.8-4.1-2.3-5.5C35.5,9.1,33.9,8.5,32.2,8.5z M45.1,21.5c-0.2-0.2-0.5-0.3-0.8-0.3
				c-0.3,0-0.6,0.1-0.8,0.3c-0.2,0.2-0.3,0.5-0.3,0.8c0,0.3,0.1,0.6,0.3,0.8c0.2,0.2,0.5,0.3,0.8,0.3c0.4,0,0.6-0.1,0.8-0.3
				c0.2-0.2,0.3-0.5,0.3-0.8C45.5,22,45.3,21.7,45.1,21.5z"/>
		</g>
	</g>
</g>
</svg>
